<?xml version="1.0" encoding="UTF-8"?>
<svg width="24px" height="23px" viewBox="0 0 24 23" version="1.1" xmlns="http://www.w3.org/2000/svg" xmlns:xlink="http://www.w3.org/1999/xlink">
    <!-- Generator: sketchtool 53.2 (72643) - https://sketchapp.com -->
    <title>C6896077-4D61-4FE9-8512-9EE125A8DE93</title>
    <desc>Created with sketchtool.</desc>
    <g id="Workspace" stroke="none" stroke-width="1" fill="none" fill-rule="evenodd">
        <g id="1-1-1-Choose-Name" transform="translate(-29.000000, -21.000000)" fill="#919EAB">
            <g id="Header">
                <path d="M44,23 C44,23.535714 43.9392358,23.6875003 44,24 C43.6961808,23.9374997 43.5486108,24 43,24 L30,24 C29.4513892,24 29.3038192,23.9374997 29,24 C29.0607642,23.6875003 29,23.535714 29,23 L29,22 C29,21.464286 29.0607642,21.3124997 29,21 C29.3038192,21.0625003 29.4513892,21 30,21 L43,21 C43.5486108,21 43.6961808,21.0625003 44,21 C43.9392358,21.3124997 44,21.464286 44,22 L44,23 Z M30,31 C29.464286,31 29.3124997,30.9374997 29,31 C29.0625003,30.6875003 29,30.535714 29,30 L29,29 C29,28.464286 29.0625003,28.3124997 29,28 C29.3124997,28.0625003 29.464286,28 30,28 L52,28 C52.535714,28 52.6875003,28.0625003 53,28 C52.9374997,28.3124997 53,28.464286 53,29 L53,30 C53,30.535714 52.9374997,30.6875003 53,31 C52.6875003,30.9374997 52.535714,31 52,31 L30,31 Z M30,44 C29.464286,44 29.3124997,43.9374997 29,44 C29.0625003,43.6875003 29,43.535714 29,43 L29,42 C29,41.464286 29.0625003,41.3124997 29,41 C29.3124997,41.0625003 29.464286,41 30,41 L52,41 C52.535714,41 52.6875003,41.0625003 53,41 C52.9374997,41.3124997 53,41.464286 53,42 L53,43 C53,43.535714 52.9374997,43.6875003 53,44 C52.6875003,43.9374997 52.535714,44 52,44 L30,44 Z M43,34 C43.5486108,34 43.6961808,34.0625003 44,34 C43.9392358,34.3124997 44,34.464286 44,35 L44,36 C44,36.535714 43.9392358,36.6875003 44,37 C43.6961808,36.9374997 43.5486108,37 43,37 L30,37 C29.4513892,37 29.3038192,36.9374997 29,37 C29.0607642,36.6875003 29,36.535714 29,36 L29,35 C29,34.464286 29.0607642,34.3124997 29,34 C29.3038192,34.0625003 29.4513892,34 30,34 L43,34 Z" id=""></path>
            </g>
        </g>
    </g>
</svg>